 <svg version="1.0" xmlns="http://www.w3.org/2000/svg"  width="142.000000pt" height="150.000000pt" viewBox="0 0 142.000000 150.000000"  preserveAspectRatio="xMidYMid meet">  <g transform="translate(0.000000,150.000000) scale(0.100000,-0.100000)" fill="#000000" stroke="none"> <path d="M88 1465 c-46 -31 -78 -83 -78 -127 0 -24 53 -142 179 -398 98 -201 232 -475 298 -610 98 -201 127 -252 161 -282 36 -32 49 -38 89 -38 34 0 55 7 80 26 44 34 73 81 73 120 0 18 -44 122 -114 265 -394 813 -470 967 -493 997 -56 73 -130 91 -195 47z"/> <path d="M1194 1471 c-46 -28 -64 -55 -248 -375 -249 -430 -243 -416 -179 -487 51 -56 86 -72 142 -66 37 4 52 12 78 42 17 20 120 190 228 377 194 333 197 341 192 386 -4 39 -12 53 -44 81 -40 35 -91 61 -120 61 -10 0 -32 -9 -49 -19z"/> </g> </svg> 